<?xml version="1.0" encoding="UTF-8"?>
<svg width="1920px" height="440px" viewBox="0 0 1920 440" version="1.1" xmlns="http://www.w3.org/2000/svg" xmlns:xlink="http://www.w3.org/1999/xlink">
    <title>Artboard</title>
    <defs>
        <linearGradient x1="6.47265071%" y1="50%" x2="97.7848473%" y2="50%" id="linearGradient-1">
            <stop stop-color="#F0F0F0" offset="0%"></stop>
            <stop stop-color="#ABABAB" offset="100%"></stop>
        </linearGradient>
    </defs>
    <g id="Artboard" stroke="none" stroke-width="1" fill="none" fill-rule="evenodd">
        <rect fill="#181818" x="0" y="0" width="1920" height="440"></rect>
        <text id="starkit" fill="url(#linearGradient-1)" fill-rule="nonzero" font-family="Poppins-Bold, Poppins" font-size="218.2" font-weight="bold" letter-spacing="6.89052604">
            <tspan x="566" y="297">starkit</tspan>
        </text>
        <g id="star-fall-svgrepo-com-copy" transform="translate(453.8963, 66.9439)" fill="#B9B9B9" fill-rule="nonzero">
            <path d="M42.0461286,24.9793673 C42.1516648,22.5138581 46.2361417,21.5325945 47.4486857,23.68374 C53.1364152,33.7815496 62.8412581,48.6329867 73.8507085,55.3850688 C84.8624043,62.1371509 102.498183,64.0525237 114.077978,64.5442783 C116.543484,64.6498147 117.522501,68.7342967 115.371359,69.9468422 C105.273562,75.6345788 90.4243885,85.3394339 83.6723148,96.348898 C76.9202412,107.360608 75.0048707,124.996408 74.5131168,136.576218 C74.4075805,139.041727 70.3208582,140.020746 69.1105596,137.8696 C63.4205847,127.77179 53.7179873,112.922599 42.7062914,106.170517 C31.696392,99.4184345 14.0606132,97.5030617 2.48149167,97.0113071 C0.0146382792,96.9057708 -0.964827814,92.8190433 1.18631505,91.6087432 C11.2838874,85.9187612 26.1344077,76.2161516 32.886706,65.204442 C39.6390042,54.1949778 41.5543746,36.559177 42.0461286,24.9793673 Z" id="Path"></path>
            <path d="M226.512243,2.52257537 C226.321379,0.0615570704 222.014603,-0.97135207 220.727959,1.13712985 C216.859045,7.48053924 211.279098,15.1352942 205.079405,18.9390943 C198.877467,22.7428945 189.522915,24.2428582 182.115169,24.8154492 C179.654154,25.0063128 178.621246,29.3130948 180.729725,30.5997403 C187.073127,34.4686587 194.727872,40.0463681 198.531667,46.2483138 C202.335463,52.4502596 203.835425,61.8048236 204.408015,69.2125785 C204.598878,71.6735968 208.905655,72.706506 210.192299,70.5980241 C214.061212,64.2546147 219.638915,56.5998598 225.840853,52.7960596 C232.042791,48.9922594 241.397343,47.4922957 248.805089,46.9197048 C251.266104,46.7288411 252.299012,42.4220591 250.190533,41.1354136 C243.847131,37.2664952 236.192386,31.6865404 232.38859,25.4868401 C228.584795,19.2848943 227.084833,9.93033027 226.512243,2.52257537 Z" id="Path" opacity="0.5"></path>
        </g>
    </g>
</svg>